name C:\Users\u0101727\Documents\MyRepositories\upper-imu-dc\Results\main_tracking\Case_44\FLX01_linearAccelerations_groundFrame.mot
datacolumns 4
datarows 129
range 3.51000000 4.79000000
endheader 
time	radius_imu_x	radius_imu_y	radius_imu_z	
          3.51000000	          0.10261488	          9.77011366	          0.08430717	
          3.52000000	          0.09631660	          9.77000260	          0.08992061	
          3.53000000	          0.09243595	          9.76979777	          0.09384910	
          3.54000000	          0.09111091	          9.76950109	          0.09603621	
          3.55000000	          0.09245212	          9.76910267	          0.09651104	
          3.56000000	          0.09655232	          9.76857941	          0.09538825	
          3.57000000	          0.10349538	          9.76789445	          0.09285860	
          3.58000000	          0.11336122	          9.76699730	          0.08917059	
          3.59000000	          0.12622425	          9.76582421	          0.08460578	
          3.60000000	          0.14214711	          9.76430066	          0.07945059	
          3.61000000	          0.16117554	          9.76234663	          0.07396872	
          3.62000000	          0.18333527	          9.75988297	          0.06838032	
          3.63000000	          0.20862762	          9.75683593	          0.06285109	
          3.64000000	          0.23702729	          9.75313953	          0.05748979	
          3.65000000	          0.26848027	          9.74873793	          0.05234943	
          3.66000000	          0.30289886	          9.74358831	          0.04742887	
          3.67000000	          0.34016372	          9.73766100	          0.04268179	
          3.68000000	          0.38011863	          9.73093714	          0.03803312	
          3.69000000	          0.42256092	          9.72340512	          0.03339957	
          3.70000000	          0.46724053	          9.71505703	          0.02870836	
          3.71000000	          0.51385644	          9.70588981	          0.02390258	
          3.72000000	          0.56206330	          9.69590880	          0.01893551	
          3.73000000	          0.61148224	          9.68513019	          0.01375971	
          3.74000000	          0.66170730	          9.67357985	          0.00831950	
          3.75000000	          0.71231440	          9.66128872	          0.00255056	
          3.76000000	          0.76287197	          9.64828759	         -0.00361773	
          3.77000000	          0.81294917	          9.63460208	         -0.01025810	
          3.78000000	          0.86212159	          9.62024801	         -0.01743762	
          3.79000000	          0.90997560	          9.60522934	         -0.02520951	
          3.80000000	          0.95611401	          9.58954161	         -0.03361005	
          3.81000000	          1.00016548	          9.57318035	         -0.04266107	
          3.82000000	          1.04179460	          9.55614961	         -0.05237166	
          3.83000000	          1.08070979	          9.53846517	         -0.06273208	
          3.84000000	          1.11666577	          9.52015197	         -0.07369979	
          3.85000000	          1.14946265	          9.50123892	         -0.08518525	
          3.86000000	          1.17894827	          9.48175266	         -0.09704624	
          3.87000000	          1.20501630	          9.46171318	         -0.10909033	
          3.88000000	          1.22759912	          9.44113172	         -0.12108041	
          3.89000000	          1.24665918	          9.42000893	         -0.13274247	
          3.90000000	          1.26217869	          9.39833692	         -0.14377625	
          3.91000000	          1.27416131	          9.37610230	         -0.15387281	
          3.92000000	          1.28263581	          9.35329044	         -0.16273182	
          3.93000000	          1.28764756	          9.32988826	         -0.17007126	
          3.94000000	          1.28924125	          9.30588373	         -0.17562989	
          3.95000000	          1.28744349	          9.28126793	         -0.17916940	
          3.96000000	          1.28225613	          9.25604311	         -0.18048333	
          3.97000000	          1.27365738	          9.23023467	         -0.17941125	
          3.98000000	          1.26160259	          9.20390274	         -0.17585145	
          3.99000000	          1.24602376	          9.17715061	         -0.16976863	
          4.00000000	          1.22683133	          9.15012861	         -0.16119570	
          4.01000000	          1.20392175	          9.12303214	         -0.15022931	
          4.02000000	          1.17719161	          9.09609499	         -0.13701897	
          4.03000000	          1.14655376	          9.06957863	         -0.12174949	
          4.04000000	          1.11195137	          9.04375824	         -0.10461779	
          4.05000000	          1.07336975	          9.01890696	         -0.08580931	
          4.06000000	          1.03084702	          8.99528156	         -0.06548162	
          4.07000000	          0.98448313	          8.97311139	         -0.04376187	
          4.08000000	          0.93444767	          8.95259069	         -0.02075863	
          4.09000000	          0.88098848	          8.93387215	          0.00341995	
          4.10000000	          0.82444180	          8.91705884	          0.02865415	
          4.11000000	          0.76524103	          8.90219330	          0.05481556	
          4.12000000	          0.70391843	          8.88924717	          0.08178114	
          4.13000000	          0.64109630	          8.87811785	          0.10944659	
          4.14000000	          0.57746758	          8.86863509	          0.13773006	
          4.15000000	          0.51376676	          8.86057421	          0.16656598	
          4.16000000	          0.45073431	          8.85367068	          0.19589362	
          4.17000000	          0.38907967	          8.84763214	          0.22564561	
          4.18000000	          0.32944912	          8.84214820	          0.25573726	
          4.19000000	          0.27240208	          8.83690178	          0.28605251	
          4.20000000	          0.21839190	          8.83158492	          0.31642421	
          4.21000000	          0.16774437	          8.82591828	          0.34661591	
          4.22000000	          0.12063301	          8.81967093	          0.37631688	
          4.23000000	          0.07705901	          8.81267749	          0.40515752	
          4.24000000	          0.03684732	          8.80485050	          0.43274641	
          4.25000000	         -0.00033462	          8.79618696	          0.45872480	
          4.26000000	         -0.03494041	          8.78676827	          0.48282865	
          4.27000000	         -0.06749746	          8.77675012	          0.50494104	
          4.28000000	         -0.09854892	          8.76633844	          0.52511391	
          4.29000000	         -0.12858894	          8.75575460	          0.54355006	
          4.30000000	         -0.15800936	          8.74519921	          0.56055947	
          4.31000000	         -0.18707700	          8.73482335	          0.57651264	
          4.32000000	         -0.21594156	          8.72470975	          0.59180176	
          4.33000000	         -0.24465922	          8.71486285	          0.60680684	
          4.34000000	         -0.27322163	          8.70520891	          0.62186297	
          4.35000000	         -0.30158716	          8.69561031	          0.63722716	
          4.36000000	         -0.32970803	          8.68589204	          0.65304514	
          4.37000000	         -0.35754651	          8.67587290	          0.66932279	
          4.38000000	         -0.38508442	          8.66539631	          0.68591428	
          4.39000000	         -0.41233474	          8.65435956	          0.70253668	
          4.40000000	         -0.43935250	          8.64273591	          0.71881120	
          4.41000000	         -0.46623317	          8.63057774	          0.73432051	
          4.42000000	         -0.49309567	          8.61799403	          0.74866781	
          4.43000000	         -0.52005907	          8.60510993	          0.76152442	
          4.44000000	         -0.54722660	          8.59203008	          0.77265578	
          4.45000000	         -0.57468786	          8.57882832	          0.78191914	
          4.46000000	         -0.60254163	          8.56557168	          0.78923688	
          4.47000000	         -0.63092752	          8.55236760	          0.79456403	
          4.48000000	         -0.66004392	          8.53940913	          0.79786655	
          4.49000000	         -0.69013650	          8.52699174	          0.79911288	
          4.50000000	         -0.72146359	          8.51550198	          0.79827621	
          4.51000000	         -0.75425534	          8.50538577	          0.79533808	
          4.52000000	         -0.78868720	          8.49711606	          0.79028700	
          4.53000000	         -0.82487108	          8.49118313	          0.78310162	
          4.54000000	         -0.86285108	          8.48808721	          0.77371099	
          4.55000000	         -0.90260281	          8.48833259	          0.76196250	
          4.56000000	         -0.94402685	          8.49242557	          0.74758960	
          4.57000000	         -0.98694305	          8.50085869	          0.73022291	
          4.58000000	         -1.03108569	          8.51408750	          0.70941693	
          4.59000000	         -1.07610917	          8.53252166	          0.68469162	
          4.60000000	         -1.12160300	          8.55652196	          0.65559907	
          4.61000000	         -1.16709494	          8.58639098	          0.62177204	
          4.62000000	         -1.21205074	          8.62235619	          0.58295309	
          4.63000000	         -1.25587022	          8.66453509	          0.53899579	
          4.64000000	         -1.29789465	          8.71290195	          0.48984784	
          4.65000000	         -1.33743458	          8.76727341	          0.43554000	
          4.66000000	         -1.37380848	          8.82731330	          0.37618975	
          4.67000000	         -1.40637795	          8.89255097	          0.31201112	
          4.68000000	         -1.43457209	          8.96241077	          0.24331357	
          4.69000000	         -1.45789815	          9.03624805	          0.17048117	
          4.70000000	         -1.47594263	          9.11338468	          0.09394505	
          4.71000000	         -1.48836838	          9.19313656	          0.01416526	
          4.72000000	         -1.49491212	          9.27483131	         -0.06837147	
          4.73000000	         -1.49538307	          9.35781880	         -0.15314694	
          4.74000000	         -1.48965914	          9.44147991	         -0.23962043	
          4.75000000	         -1.47768071	          9.52524470	         -0.32726509	
          4.76000000	         -1.45944653	          9.60862729	         -0.41562307	
          4.77000000	         -1.43500749	          9.69126412	         -0.50435071	
          4.78000000	         -1.40445047	          9.77293213	         -0.59322514	
          4.79000000	         -1.36789131	          9.85353375	         -0.68211632	
